<?xml version="1.0" encoding="UTF-8"?><svg xmlns="http://www.w3.org/2000/svg" viewBox="0 0 206.46 118.18"><defs><style>.d{fill:#010101;}</style></defs><g id="a"/><g id="b"><g id="c"><path class="d" d="M133.17,36.55v36l9.43-11.55-9,9,.86-.71-3.83-3.83c-1.39-1.39-4.19-3.23-5.01-5.01-.97-2.1-.16-6.3-.16-8.62V24.3c0,.85-4.72,5-5.45,5.87-1.13,1.35-4.84,4.48-4.84,6.39v27.54c0,2.3-.8,6.37,.07,8.52,.65,1.62,3.55,3.55,4.77,4.77l4.16,4.16c.34-.16,.62-.4,.86-.71,3.29-3.29,6.68-6.51,9.87-9.91,2.55-2.72,7.59-7.03,8.56-10.73,.34-1.3,0-3.12,0-4.45V24.3c0,.85-4.72,5-5.45,5.87-1.13,1.35-4.84,4.48-4.84,6.39h0Z"/><path class="d" d="M97.17,36.55v36c0-.85,4.72-5,5.45-5.87,1.13-1.35,4.84-4.48,4.84-6.39V24.3c0,.85-4.72,5-5.45,5.87-1.13,1.35-4.84,4.48-4.84,6.39h0Z"/><path class="d" d="M174.32,3.43c-.08-2,1.34-3.61,2.9-3.41,.39,.05,2.8,.4,5.95,1.57,3.14,1.15,6.97,3.28,10.08,6.1,3.12,2.81,5.55,6.15,6.79,8.88l.48,.96,.33,.91c.2,.57,.36,1.08,.47,1.5,.22,.85,.24,1.37,.01,1.48s-.67-.18-1.28-.78c-.31-.3-.65-.67-1.03-1.09l-.59-.69-.71-.71c-1.84-2.08-4.56-4.51-7.57-6.41-3.01-1.92-6.33-3.2-8.97-3.82-2.64-.63-4.53-.72-4.81-.75-1.16-.15-1.97-1.76-2.05-3.74Z"/><path class="d" d="M196.17,38.02c0,12.02,.4,24.12,0,36.13s-3.52,23.37-8.09,33.79c-.49,1.16-1.02,2.3-1.6,3.41l5.9-6.58c-1.13,.02-2.21,1.25-3.61,1.2-1.8-.07-3.41-1.1-4.73-2.24-1.88-1.62-3.43-3.78-4.58-5.98,0,0-5.04,5.39-5.45,5.87-.59,.71-5.32,5.46-4.84,6.39,2.23,4.27,7.03,10.27,12.39,7.41,4.73-2.53,8.55-8.65,11.7-12.78,3.94-5.17,6.29-11.26,8.29-17.4,4.62-14.2,4.91-27.38,4.91-41.99V25.77c0,.85-4.72,5-5.45,5.87-1.13,1.35-4.84,4.48-4.84,6.39h0Z"/><path class="d" d="M196.69,24.3c-3.71-.07-7.65,1.02-10.81,2.94-3.58,2.18-6.31,5.72-8.97,8.88-2.84,3.39-6.1,6.91-7.52,11.18-4.05,12.16,3.74,25.51,17.02,25.25,1.46-.03,4.57-4.82,5.45-5.87,.63-.76,4.11-6.37,4.84-6.39-8.56,.17-16-5.61-17.6-14.06-.67-3.55-.64-7.43,.5-10.88,.21-.64,1.13-1.95,1.11-2.6l-6.56,7.82,.64-.5c1.18-.62,2.21-1.39,3.45-1.91,2.53-1.05,5.41-1.66,8.16-1.61,1.39,.03,4.61-4.87,5.45-5.87,.6-.71,4.19-6.4,4.84-6.39h0Z"/><path class="d" d="M151.17,37.33c0,12.02,.4,24.12,0,36.13s-3.52,23.37-8.09,33.79c-.49,1.16-1.02,2.3-1.6,3.41l5.9-6.58c-1.13,.02-2.21,1.25-3.61,1.2-1.8-.07-3.41-1.1-4.73-2.24-1.88-1.62-3.43-3.78-4.58-5.98,0,0-5.04,5.39-5.45,5.87-.59,.71-5.32,5.46-4.84,6.39,2.23,4.27,7.03,10.27,12.39,7.41,4.73-2.53,8.55-8.65,11.7-12.78,3.94-5.17,6.29-11.26,8.29-17.4,4.62-14.2,4.91-27.38,4.91-41.99V25.08c0,.85-4.72,5-5.45,5.87-1.13,1.35-4.84,4.48-4.84,6.39h0Z"/><path class="d" d="M129.32,4.2c-.08-2,1.34-3.61,2.9-3.41,.39,.05,2.8,.4,5.95,1.57,3.14,1.15,6.97,3.28,10.08,6.1,3.12,2.81,5.55,6.15,6.79,8.88l.48,.96,.33,.91c.2,.57,.36,1.08,.47,1.5,.22,.85,.24,1.37,.01,1.48s-.67-.18-1.28-.78c-.31-.3-.65-.67-1.03-1.09l-.59-.69-.71-.71c-1.84-2.08-4.56-4.51-7.57-6.41-3.01-1.92-6.33-3.2-8.97-3.82-2.64-.63-4.53-.72-4.81-.75-1.16-.15-1.97-1.76-2.05-3.74Z"/><path class="d" d="M79.2,36.56v36c0-.85,4.72-5,5.45-5.87,1.13-1.35,4.84-4.48,4.84-6.39V24.3c0,.85-4.72,5-5.45,5.87-1.13,1.35-4.84,4.48-4.84,6.39h0Z"/><path class="d" d="M80.49,24.3c-3.71-.07-7.65,1.02-10.81,2.94-3.58,2.18-6.31,5.72-8.97,8.88-2.84,3.39-6.1,6.91-7.52,11.18-4.05,12.16,3.74,25.51,17.02,25.25,1.46-.03,4.57-4.82,5.45-5.87,.63-.76,4.11-6.37,4.84-6.39-8.56,.17-16-5.61-17.6-14.06-.67-3.55-.64-7.43,.5-10.88,.21-.64,1.13-1.95,1.11-2.6l-6.56,7.82,.64-.5c1.18-.62,2.21-1.39,3.45-1.91,2.53-1.05,5.41-1.66,8.16-1.61,1.39,.03,4.61-4.87,5.45-5.87,.6-.71,4.19-6.4,4.84-6.39h0Z"/><path class="d" d="M57.35,3.43c-.08-2,1.34-3.61,2.9-3.41,.39,.05,2.8,.4,5.95,1.57,3.14,1.15,6.97,3.28,10.08,6.1,3.12,2.81,5.55,6.15,6.79,8.88l.48,.96,.33,.91c.2,.57,.36,1.08,.47,1.5,.22,.85,.24,1.37,.01,1.48-.22,.11-.67-.18-1.28-.78-.31-.3-.65-.67-1.03-1.09l-.59-.69-.71-.71c-1.84-2.08-4.56-4.51-7.57-6.41-3.01-1.92-6.33-3.2-8.97-3.82-2.64-.63-4.53-.72-4.81-.75-1.16-.15-1.97-1.76-2.05-3.74Z"/><path class="d" d="M34.19,36.56v36c0-.85,4.72-5,5.45-5.87,1.13-1.35,4.84-4.48,4.84-6.39V24.3c0,.85-4.72,5-5.45,5.87-1.13,1.35-4.84,4.48-4.84,6.39h0Z"/><path class="d" d="M12.34,21.43c-.05,.99-.7,1.86-1.76,2.32-1.05,.46-2.54,.51-4.03-.18-.18-.08-.61-.28-1.24-.67-.31-.18-.67-.42-1.06-.74-.4-.28-.82-.67-1.26-1.12-.46-.42-.86-1.02-1.3-1.62-.2-.32-.37-.67-.56-1.02-.19-.35-.36-.73-.48-1.13C0,15.67-.06,13.9,.03,12.14c.19-1.71,.62-3.63,1.69-5.46,1.05-1.84,2.74-3.41,4.62-4.41,.95-.5,1.93-.89,2.95-1.16,.51-.14,1.02-.25,1.55-.33,.26-.05,.53-.07,.81-.1,.35-.04,.76-.05,1.13-.02,1.35,.13,2.2,.44,3.18,.76,.94,.33,1.81,.72,2.67,1.13,3.37,1.69,6.29,3.79,8.86,5.89,1.31,1.02,2.45,2.13,3.59,3.12,1.07,1.05,2.1,2.03,3,2.97,.89,.95,1.69,1.83,2.39,2.62,.69,.79,1.25,1.52,1.71,2.12,.91,1.21,1.35,1.97,1.17,2.15-.18,.18-.96-.24-2.18-1.11-.62-.43-1.33-.98-2.16-1.6-.84-.61-1.77-1.31-2.78-2.08-1.07-.77-2.17-1.58-3.31-2.41-1.21-.79-2.44-1.71-3.78-2.52-2.64-1.69-5.56-3.34-8.53-4.48-.74-.27-1.48-.53-2.2-.71-.36-.11-.7-.15-1.05-.23-.31-.04-.69-.09-.83-.08-.06,0-.08,.01-.15,.03-.15,.03-.3,.06-.45,.1-.31,.08-.63,.17-.93,.28-.61,.21-1.16,.5-1.65,.81-.97,.64-1.64,1.41-2.04,2.28-.41,.86-.57,1.85-.62,2.85,.05,.93,.11,1.74,.41,2.25,.04,.15,.11,.27,.2,.38,.08,.11,.13,.23,.2,.33,.2,.18,.29,.39,.5,.52,.7,.61,1.41,.92,1.6,.99,1.44,.69,2.84,2.41,2.77,4.39Z"/></g></g></svg>